<svg width="569" height="522" viewBox="0 0 569 522" fill="none" xmlns="http://www.w3.org/2000/svg">
<path d="M277.145 470L129.011 428.877L96 58.6201H458.734L425.688 428.819L277.145 470Z" fill="#264DE4"/>
<path d="M397.397 405.246L425.637 88.894H277.367V438.523L397.397 405.246Z" fill="#2965F1"/>
<path d="M171.677 226.217L175.747 271.627H277.367V226.217H171.677Z" fill="#EBEBEB"/>
<path d="M163.499 134.305L167.627 179.716H277.367V134.305H277.21H163.499Z" fill="#EBEBEB"/>
<path d="M277.367 344.153L277.168 344.206L226.594 330.55L223.361 294.333H198.786H177.776L184.138 365.634L277.158 391.457L277.367 391.399V344.153Z" fill="#EBEBEB"/>
<path d="M382.766 226.217L390.964 134.305H277.21V179.716H341.198L337.066 226.217H277.21V271.627H333.128L327.857 330.521L277.21 344.191V391.435L370.304 365.634L370.987 357.962L381.658 238.411L382.766 226.217Z" fill="white"/>
</svg>
