<svg width="208" height="104" viewBox="0 0 208 104" fill="none" xmlns="http://www.w3.org/2000/svg">
<path d="M69.3333 72.3718V32.4271H71.5V38.7104C71.7558 38.4318 71.9921 38.1359 72.2072 37.8247C74.0168 34.0703 77.8336 31.7008 82.0005 31.7476C86.9405 31.6003 90.9549 33.429 93.314 37.8247C94.8151 40.5555 95.6412 43.6059 95.7233 46.721C95.8053 49.8362 95.1408 52.9257 93.7854 55.7318C91.5876 60.6579 86.1588 63.1071 80.3469 62.2075C78.5382 62.0538 76.7968 61.4494 75.2817 60.4496C73.7666 59.4499 72.526 58.0865 71.6733 56.484V72.37L69.3333 72.3718ZM71.5 46.5572L71.9853 51.2476C72.8416 56.5863 75.998 59.741 80.9536 60.3338C83.2807 60.7164 85.6686 60.2801 87.7101 59.0992C89.7517 57.9184 91.3205 56.0661 92.1492 53.858C94.0766 49.2647 93.9345 44.0647 91.7678 39.5788C90.8834 37.5995 89.3787 35.9619 87.4812 34.9133C85.5837 33.8648 83.3964 33.4624 81.25 33.767C79.2352 33.9135 77.3161 34.684 75.7592 35.9712C74.2024 37.2584 73.0851 38.9986 72.5625 40.9499C72.1011 42.7965 71.7463 44.6681 71.5 46.5555V46.5572ZM139.963 51.986C139.635 54.7985 138.296 57.3959 136.196 59.2952C134.095 61.1945 131.377 62.2664 128.546 62.3115C119.46 62.7691 115.196 56.7354 114.518 49.7726C114.047 45.9914 114.66 42.1542 116.288 38.7087C117.42 36.3451 119.276 34.4035 121.586 33.165C123.895 31.9265 126.54 31.4556 129.135 31.8204C131.602 32.0302 133.941 33.0105 135.821 34.6228C137.7 36.2351 139.025 38.3976 139.608 40.8043C140.069 42.9967 140.409 45.213 140.625 47.443H116.762C116.32 53.7558 119.713 58.831 124.521 60.0547C130.51 61.528 135.628 58.9332 137.486 53.2392C137.899 51.778 138.651 51.5718 139.979 51.986H139.963ZM116.745 45.4219H138.089C137.956 38.6966 133.768 33.8086 128.088 33.7531C121.675 33.6491 117.024 38.3412 116.745 45.4219ZM144.374 52.1334H146.467C146.543 53.6747 147.044 55.165 147.913 56.4402C148.782 57.7154 149.986 58.7262 151.393 59.3614C153.159 60.1561 155.081 60.5424 157.017 60.4914C158.953 60.4404 160.853 59.9534 162.574 59.0667C163.513 58.6441 164.299 57.9436 164.827 57.0598C165.354 56.1761 165.598 55.1516 165.525 54.125C165.579 53.1348 165.308 52.1541 164.755 51.3314C164.201 50.5088 163.394 49.8891 162.457 49.5663C160.155 48.71 157.707 48.2386 155.362 47.4863C152.922 46.7915 150.535 45.9191 148.222 44.8759C144.444 43.0316 144.21 35.8487 148.488 33.5746C150.678 32.3386 153.143 31.6707 155.658 31.6319C158.173 31.5932 160.657 32.1848 162.885 33.3527C165.648 34.878 167.175 37.9582 166.721 41.0834H164.927C164.927 40.9967 164.764 40.9204 164.764 40.832C164.542 35.112 159.734 33.3232 154.572 33.8259C153.012 33.9992 151.533 34.4707 150.146 35.1675C149.313 35.5482 148.618 36.1785 148.159 36.9713C147.699 37.7641 147.497 38.6802 147.581 39.5927C147.583 40.5059 147.867 41.3962 148.396 42.1411C148.924 42.886 149.67 43.449 150.531 43.7527C152.785 44.5795 155.177 45.1099 157.508 45.7582L163.141 47.2315C164.422 47.6518 165.544 48.4508 166.361 49.5229C167.177 50.595 167.649 51.8897 167.714 53.2358C168.165 56.2604 166.622 59.2331 163.894 60.6111C158.967 63.3983 150.854 62.6616 147.24 59.1378C145.39 57.2779 144.359 54.7524 144.38 52.1316L144.374 52.1334ZM194.26 41.0851H192.298C192.298 40.8199 192.194 40.5651 192.164 40.3623C192.133 38.8915 191.597 37.4762 190.646 36.3537C189.695 35.2312 188.387 34.4697 186.942 34.1968C184.215 33.4147 181.306 33.5549 178.667 34.5955C177.623 34.8942 176.704 35.5226 176.048 36.3868C175.391 37.251 175.032 38.3045 175.023 39.3899C174.986 40.4557 175.318 41.5016 175.963 42.3509C176.608 43.2002 177.526 43.8007 178.563 44.0508L187.531 46.3527C188.501 46.5853 189.456 46.8759 190.391 47.2228C193.251 48.2628 195.192 50.9183 195.279 53.9534C195.322 55.439 194.914 56.9028 194.11 58.1526C193.306 59.4024 192.142 60.3797 190.772 60.956C188.691 61.9016 186.435 62.4018 184.149 62.4248C181.863 62.4478 179.597 61.993 177.497 61.0895C175.77 60.3448 174.312 59.0888 173.321 57.4906C172.329 55.8925 171.851 54.0289 171.95 52.1507H173.867C174.588 55.626 176.975 58.5207 180.249 59.89C183.524 61.2594 187.262 60.9231 190.24 58.9956C191.134 58.531 191.875 57.8201 192.377 56.9471C192.879 56.074 193.12 55.0754 193.072 54.0695C193.117 53.0787 192.837 52.1004 192.275 51.283C191.713 50.4657 190.9 49.8538 189.959 49.5403C187.658 48.684 185.21 48.2282 182.865 47.4603C180.411 46.7762 178.01 45.9136 175.682 44.8794C171.993 43.0646 171.699 35.9406 175.904 33.6682C178.121 32.3803 180.635 31.6884 183.199 31.6598C185.763 31.6313 188.291 32.267 190.537 33.5052C191.821 34.2718 192.855 35.3953 193.512 36.739C194.17 38.0826 194.422 39.5884 194.239 41.073L194.26 41.0851ZM65.7678 61.5904C64.9955 61.8825 64.1429 61.8817 63.3711 61.5883C62.5993 61.2948 61.9616 60.7289 61.5784 59.9975L53.9517 49.4502L52.8458 47.9768L43.9954 60.0131C43.6347 60.7131 43.0315 61.2578 42.2985 61.5455C41.5655 61.8333 40.7528 61.8443 40.0122 61.5766L51.4141 46.2799L40.8061 32.4583C42.38 31.8898 44.1341 32.5068 45.0094 33.9316L52.9134 44.609L60.8642 33.9732C61.2276 33.2853 61.8312 32.7548 62.5602 32.4829C63.2892 32.2109 64.0927 32.2163 64.818 32.4982L60.7013 37.9599L55.1252 45.2174C54.9704 45.3556 54.8466 45.5249 54.7618 45.7143C54.677 45.9037 54.6332 46.1088 54.6332 46.3163C54.6332 46.5238 54.677 46.7289 54.7618 46.9183C54.8466 47.1077 54.9704 47.277 55.1252 47.4152L65.7453 61.5904H65.7678ZM114.18 32.311V34.391C112.688 34.2931 111.192 34.5092 109.789 35.0252C108.386 35.5412 107.106 36.3457 106.033 37.3868C104.96 38.4279 104.117 39.6824 103.559 41.0694C103 42.4564 102.739 43.945 102.792 45.4392C102.792 50.2972 102.792 55.1552 102.792 60.0131V61.665H100.682V32.441H102.762V38.4296C105.314 34.0616 109.252 32.441 114.194 32.3231L114.18 32.311ZM12.7105 46.0892L13.6396 41.5011C16.191 32.4288 26.591 28.6536 33.7462 34.2731C37.9357 37.563 38.9809 42.2239 38.7764 47.4759H15.1736C14.7922 56.8567 21.5609 62.5212 30.2189 59.63C33.072 58.59 35.2196 56.2188 35.9268 53.2722C36.3844 51.7988 37.1401 51.5458 38.5233 51.9722C38.2926 53.7681 37.6577 55.4884 36.6664 57.0036C35.675 58.5189 34.3531 59.7896 32.7998 60.7203C30.2337 62.1237 27.2896 62.6797 24.3884 62.3089C21.4872 61.9382 18.7776 60.6595 16.6469 58.6559C14.5392 56.2864 13.2669 53.2912 13.019 50.1279C13.019 49.6079 12.8457 49.1226 12.7244 48.6546C12.7128 47.7798 12.707 46.9247 12.707 46.0892H12.7105ZM15.203 45.4548H36.5473C36.4138 38.655 32.1221 33.8311 26.3986 33.786C20.0269 33.6994 15.4682 38.4175 15.1874 45.4254L15.203 45.4548Z" fill="#f5e171"/>
</svg>
