<svg width="132" height="132" viewBox="0 0 132 132" fill="none" xmlns="http://www.w3.org/2000/svg">
<g clip-path="url(#clip0_56_107)">
<path d="M18.833 105.719L34.9652 2.49055C35.1624 1.22455 36.147 0.226553 37.4102 0.0119529C38.6734 -0.202647 39.9322 0.414753 40.5362 1.54465L57.2197 32.662L63.8697 20.0005C64.3847 19.0215 65.4 18.4085 66.5063 18.4085C67.6126 18.4085 68.6278 19.0215 69.1429 20.0005L114.166 105.718L18.833 105.719Z" fill="#FFA000"/>
<path d="M74.5661 65.5074L57.2125 32.6472L18.8335 105.719L74.5661 65.5074Z" fill="#F57C00"/>
<path d="M114.167 105.719L101.811 29.2583C101.624 28.1603 100.84 27.2583 99.7792 26.9183C98.718 26.5783 97.5566 26.8613 96.7685 27.6485L18.8335 105.717L61.9569 129.901C64.6649 131.413 67.9629 131.413 70.6709 129.901L114.167 105.717V105.719Z" fill="#FFCA28"/>
<path d="M101.81 29.2584C101.624 28.1604 100.84 27.2584 99.7789 26.9184C98.7177 26.5784 97.5564 26.8614 96.7682 27.6486L81.3 43.1562L69.1364 20C68.6214 19.021 67.6062 18.408 66.4999 18.408C65.3936 18.408 64.3783 19.021 63.8632 20L57.2132 32.6615L40.5289 1.54467C39.924 0.414466 38.6636 -0.201934 37.3989 0.0142659C36.1342 0.230466 35.153 1.23097 34.958 2.49797L18.8333 105.719H18.7812L18.8333 105.778L19.2577 105.987L96.7457 28.4093C97.5334 27.6178 98.6977 27.3333 99.7617 27.6723C100.826 28.0113 101.611 28.9168 101.796 30.018L114.047 105.793L114.167 105.718L101.81 29.2584ZM18.9748 105.577L34.9655 3.22797C35.1602 1.96097 36.1439 0.960466 37.4075 0.744266C38.6711 0.528066 39.9314 1.14427 40.5374 2.27467L57.22 33.392L63.87 20.7305C64.385 19.7515 65.4002 19.1385 66.5065 19.1385C67.6129 19.1385 68.6281 19.7515 69.1432 20.7305L81.0598 43.3945L18.9748 105.577Z" fill="white" fill-opacity="0.2"/>
<path opacity="0.2" d="M70.6705 129.172C67.9625 130.684 64.6645 130.684 61.9565 129.172L18.9373 105.056L18.833 105.719L61.9564 129.895C64.6644 131.407 67.9624 131.407 70.6704 129.895L114.166 105.719L114.055 105.034L70.6705 129.172Z" fill="#A52714"/>
<path d="M101.687 29.2742C101.501 28.1765 100.72 27.2742 99.6626 26.9362C98.6052 26.5982 97.4478 26.8792 96.6624 27.6662L81.2473 43.166L69.1273 20.0205C68.614 19.0419 67.6023 18.4291 66.5 18.4291C65.3977 18.4291 64.386 19.0419 63.8727 20.0205L57.245 32.6765L40.62 1.57257C40.017 0.442871 38.7612 -0.173429 37.502 0.0428713C36.2428 0.259171 35.2626 1.25887 35.0685 2.52557L19 105.701L61.9727 129.866C64.6712 131.378 67.9577 131.378 70.6563 129.866L114 105.701L101.687 29.274V29.2742Z" fill="url(#paint0_linear_56_107)"/>
</g>
<defs>
<linearGradient id="paint0_linear_56_107" x1="-312.55" y1="2229.62" x2="11542.6" y2="8483.07" gradientUnits="userSpaceOnUse">
<stop stop-color="white" stop-opacity="0.1"/>
<stop offset="0.14" stop-color="white" stop-opacity="0.08"/>
<stop offset="0.61" stop-color="white" stop-opacity="0.02"/>
<stop offset="1" stop-color="white" stop-opacity="0"/>
</linearGradient>
<clipPath id="clip0_56_107">
<rect width="132" height="132" fill="white"/>
</clipPath>
</defs>
</svg>
