<svg width="96" height="132" viewBox="0 0 96 132" fill="none" xmlns="http://www.w3.org/2000/svg">
<g clip-path="url(#clip0_56_107)">
<path d="M0.833252 105.719L16.9655 2.49055C17.1627 1.22455 18.1473 0.226553 19.4105 0.0119529C20.6737 -0.202647 21.9325 0.414753 22.5365 1.54465L39.22 32.662L45.87 20.0005C46.385 19.0215 47.4003 18.4085 48.5066 18.4085C49.6129 18.4085 50.6281 19.0215 51.1432 20.0005L96.1659 105.718L0.833252 105.719Z" fill="#FFA000"/>
<path d="M56.5661 65.5074L39.2125 32.6472L0.833496 105.719L56.5661 65.5074Z" fill="#F57C00"/>
<path d="M96.1667 105.719L83.8107 29.2583C83.624 28.1603 82.8404 27.2583 81.7792 26.9183C80.718 26.5783 79.5566 26.8613 78.7685 27.6485L0.833496 105.717L43.9569 129.901C46.6649 131.413 49.9629 131.413 52.6709 129.901L96.1667 105.717V105.719Z" fill="#FFCA28"/>
<path d="M83.8105 29.2584C83.6238 28.1604 82.8401 27.2584 81.7789 26.9184C80.7177 26.5784 79.5563 26.8614 78.7682 27.6486L63.3 43.1562L51.1364 20C50.6214 19.021 49.6062 18.408 48.4999 18.408C47.3936 18.408 46.3783 19.021 45.8632 20L39.2132 32.6615L22.5289 1.54467C21.9239 0.414466 20.6636 -0.201934 19.3989 0.0142659C18.1342 0.230466 17.153 1.23097 16.958 2.49797L0.83325 105.719H0.78125L0.83325 105.778L1.25775 105.987L78.7457 28.4093C79.5334 27.6178 80.6977 27.3333 81.7617 27.6723C82.8257 28.0113 83.6107 28.9168 83.7955 30.018L96.0473 105.793L96.1665 105.718L83.8105 29.2584ZM0.974751 105.577L16.9655 3.22797C17.1603 1.96097 18.1439 0.960466 19.4075 0.744266C20.6711 0.528066 21.9314 1.14427 22.5374 2.27467L39.22 33.392L45.87 20.7305C46.385 19.7515 47.4002 19.1385 48.5065 19.1385C49.6128 19.1385 50.6281 19.7515 51.1432 20.7305L63.0598 43.3945L0.974751 105.577Z" fill="white" fill-opacity="0.2"/>
<path opacity="0.2" d="M52.6708 129.172C49.9628 130.684 46.6648 130.684 43.9568 129.172L0.937551 105.056L0.833252 105.719L43.9567 129.895C46.6647 131.407 49.9627 131.407 52.6707 129.895L96.1665 105.719L96.0548 105.034L52.6708 129.172Z" fill="#A52714"/>
<path d="M83.687 29.2742C83.501 28.1765 82.72 27.2742 81.6626 26.9362C80.6052 26.5982 79.4478 26.8792 78.6624 27.6662L63.2473 43.166L51.1273 20.0205C50.614 19.0419 49.6023 18.4291 48.5 18.4291C47.3977 18.4291 46.386 19.0419 45.8727 20.0205L39.245 32.6765L22.62 1.57257C22.017 0.442871 20.7612 -0.173429 19.502 0.0428713C18.2428 0.259171 17.2626 1.25887 17.0685 2.52557L1 105.701L43.9727 129.866C46.6712 131.378 49.9577 131.378 52.6563 129.866L96 105.701L83.687 29.274V29.2742Z" fill="url(#paint0_linear_56_107)"/>
</g>
<defs>
<linearGradient id="paint0_linear_56_107" x1="-330.55" y1="2229.62" x2="11524.6" y2="8483.07" gradientUnits="userSpaceOnUse">
<stop stop-color="white" stop-opacity="0.1"/>
<stop offset="0.14" stop-color="white" stop-opacity="0.08"/>
<stop offset="0.61" stop-color="white" stop-opacity="0.02"/>
<stop offset="1" stop-color="white" stop-opacity="0"/>
</linearGradient>
<clipPath id="clip0_56_107">
<rect width="96" height="132" fill="white"/>
</clipPath>
</defs>
</svg>
