<svg width="569" height="522" viewBox="0 0 569 522" fill="none" xmlns="http://www.w3.org/2000/svg">
<path d="M458.734 59L425.688 429.199L277.145 470.38L129.011 429.257L96 59H458.734Z" fill="#E44D26"/>
<path d="M277.367 438.903L397.397 405.626L425.637 89.2739H277.367V438.903Z" fill="#F16529"/>
<path d="M213.127 180.096H277.367V134.685H277.21H163.499L164.586 146.868L175.747 272.007H277.367V226.597H217.277L213.127 180.096Z" fill="#EBEBEB"/>
<path d="M223.361 294.713H198.786H177.776L184.138 366.014L277.158 391.837L277.367 391.779V344.533L277.168 344.586L226.594 330.93L223.361 294.713Z" fill="#EBEBEB"/>
<path d="M277.21 272.007H333.128L327.857 330.901L277.21 344.571V391.815L370.304 366.014L370.987 358.342L381.658 238.791L382.766 226.597H370.529H277.21V272.007Z" fill="white"/>
<path d="M277.21 179.985V180.096H386.752H386.898L387.809 169.889L389.878 146.868L390.964 134.685H277.21V162.889V179.985Z" fill="white"/>
</svg>
