<svg width="134" height="148" viewBox="0 0 134 148" fill="none" xmlns="http://www.w3.org/2000/svg">
<g clip-path="url(#clip0_56_115)">
<path d="M97.7866 59.3677C90.181 26.048 74.3289 17.1779 70.2851 10.9076C68.6177 8.14538 67.1405 5.27419 65.8639 2.31372C65.6502 5.27372 65.2578 7.13852 62.7242 9.38319C57.6373 13.8873 36.0326 31.3711 34.2144 69.2295C32.5204 104.527 60.3447 126.293 64.0208 128.543C66.8475 129.924 70.2901 128.573 71.9692 127.305C85.3821 118.163 103.708 93.7925 97.8015 59.3677" fill="#10AA50"/>
<path d="M67.0163 109.747C66.3158 118.484 65.8141 123.56 64.0356 128.553C64.0356 128.553 65.2031 136.87 66.0227 145.681H68.9239C69.6159 139.477 70.6725 133.318 72.0884 127.235C68.3327 125.4 67.1604 117.413 67.0163 109.747Z" fill="#B8C4C2"/>
<path d="M72.0834 127.241C68.288 125.499 67.1902 117.344 67.0213 109.747C67.9599 97.2147 68.2335 84.642 67.8409 72.081C67.6422 65.4901 67.9353 11.036 66.2065 3.06372C67.3891 5.76385 68.7516 8.38268 70.2851 10.9028C74.3288 17.178 90.1858 26.0481 97.7865 59.3679C103.708 93.7335 85.4814 118.04 72.0834 127.241Z" fill="#12924F"/>
</g>
<defs>
<clipPath id="clip0_56_115">
<rect width="134" height="148" fill="white"/>
</clipPath>
</defs>
</svg>
