<svg width="77" height="148" viewBox="0 0 77 148" fill="none" xmlns="http://www.w3.org/2000/svg">
<g clip-path="url(#clip0_56_115)">
<path d="M66.7863 59.3677C59.1807 26.048 43.3286 17.1779 39.2849 10.9076C37.6174 8.14538 36.1403 5.27419 34.8636 2.31372C34.65 5.27372 34.2575 7.13852 31.724 9.38319C26.637 13.8873 5.03232 31.3711 3.21412 69.2295C1.52012 104.527 29.3444 126.293 33.0206 128.543C35.8472 129.924 39.2899 128.573 40.969 127.305C54.3819 118.163 72.7079 93.7925 66.8012 59.3677" fill="#10AA50"/>
<path d="M36.016 109.747C35.3156 118.484 34.8139 123.56 33.0354 128.553C33.0354 128.553 34.2028 136.87 35.0225 145.681H37.9237C38.6157 139.477 39.6723 133.318 41.0881 127.235C37.3325 125.4 36.1601 117.413 36.016 109.747Z" fill="#B8C4C2"/>
<path d="M41.0831 127.241C37.2878 125.499 36.1899 117.344 36.021 109.747C36.9596 97.2147 37.2332 84.642 36.8407 72.081C36.642 65.4901 36.9351 11.036 35.2063 3.06372C36.3889 5.76385 37.7514 8.38268 39.2848 10.9028C43.3286 17.178 59.1856 26.0481 66.7862 59.3679C72.7078 93.7335 54.4811 118.04 41.0831 127.241Z" fill="#12924F"/>
</g>
<defs>
<clipPath id="clip0_56_115">
<rect width="77" height="148" fill="white"/>
</clipPath>
</defs>
</svg>
