<svg width="181" height="111" viewBox="0 0 181 111" fill="none" xmlns="http://www.w3.org/2000/svg">
<g clip-path="url(#clip0_56_129)">
<path d="M89.4616 111C88.8642 111 88.2709 110.843 87.7472 110.541L82.2903 107.306C81.4752 106.85 81.8729 106.689 82.1417 106.596C83.2285 106.215 83.449 106.129 84.609 105.469C84.7309 105.399 84.8905 105.424 85.0153 105.498L89.2075 107.989C89.3589 108.071 89.5737 108.071 89.714 107.989L106.06 98.5409C106.211 98.4549 106.31 98.2787 106.31 98.0984V79.2112C106.31 79.0227 106.211 78.8547 106.057 78.7605L89.7173 69.321C89.5659 69.2309 89.3654 69.2309 89.2141 69.321L72.878 78.7605C72.7196 78.8507 72.619 79.0268 72.619 79.2071V98.0943C72.619 98.2746 72.7172 98.4467 72.8727 98.5327L77.3489 101.122C79.7793 102.339 81.2645 100.905 81.2645 99.4627V80.8213C81.2645 80.555 81.4732 80.3502 81.7391 80.3502H83.8095C84.0672 80.3502 84.28 80.555 84.28 80.8213V99.4709C84.28 102.716 82.5124 104.58 79.4397 104.58C78.4945 104.58 77.7498 104.58 75.6713 103.556L71.3833 101.081C70.3236 100.466 69.6689 99.3193 69.6689 98.0943V79.2071C69.6689 77.978 70.3236 76.8308 71.3833 76.2245L87.7456 66.7727C88.7808 66.1868 90.1555 66.1868 91.1825 66.7727L107.524 76.2286C108.58 76.839 109.239 77.9821 109.239 79.2112V98.0984C109.239 99.3234 108.58 100.466 107.524 101.081L91.1825 110.533C90.6588 110.836 90.0655 110.992 89.46 110.992" fill="#689F63"/>
<path d="M94.5105 97.9858C87.3585 97.9858 85.8589 94.6983 85.8589 91.941C85.8589 91.6788 86.07 91.4699 86.3323 91.4699H88.4435C88.6768 91.4699 88.8732 91.6399 88.91 91.8706C89.2291 94.0248 90.1784 95.1113 94.5032 95.1113C97.9483 95.1113 99.4131 94.3321 99.4131 92.5027C99.4131 91.4498 98.9957 90.6673 93.644 90.1429C89.1678 89.7004 86.4018 88.713 86.4018 85.1281C86.4018 81.8259 89.1841 79.8594 93.8444 79.8594C99.0776 79.8594 101.672 81.6784 101.999 85.587C102.011 85.7222 101.962 85.8533 101.872 85.9516C101.782 86.0458 101.655 86.1032 101.524 86.1032H99.4008C99.1799 86.1032 98.9876 85.9475 98.9426 85.7345C98.4311 83.4688 97.1955 82.7436 93.8363 82.7436C90.0761 82.7436 89.6383 84.0547 89.6383 85.038C89.6383 86.2302 90.1538 86.5785 95.2274 87.2504C100.252 87.9182 102.637 88.8605 102.637 92.3962C102.637 95.9606 99.6668 98.005 94.4868 98.005M114.396 77.9747H114.945C115.395 77.9747 115.481 77.6593 115.481 77.4749C115.481 76.9914 115.149 76.9914 114.965 76.9914H114.401L114.396 77.9747ZM113.73 76.4261H114.945C115.362 76.4261 116.18 76.4261 116.18 77.3602C116.18 78.0116 115.763 78.1468 115.513 78.2287C116 78.2615 116.033 78.5811 116.099 79.0318C116.131 79.3144 116.185 79.802 116.283 79.9659H115.534C115.513 79.802 115.399 78.9006 115.399 78.8515C115.35 78.6507 115.28 78.5524 115.031 78.5524H114.413V79.97H113.73V76.4261ZM112.269 78.1878C112.269 79.6545 113.451 80.8426 114.904 80.8426C116.369 80.8426 117.551 79.6299 117.551 78.1878C117.551 76.7169 116.352 75.5493 114.9 75.5493C113.468 75.5493 112.265 76.7006 112.265 78.1837M118.058 78.196C118.058 79.9331 116.639 81.3507 114.908 81.3507C113.189 81.3507 111.757 79.9495 111.757 78.196C111.757 76.4097 113.222 75.0413 114.908 75.0413C116.606 75.0413 118.054 76.4138 118.054 78.196" fill="#689F63"/>
<path fill-rule="evenodd" clip-rule="evenodd" d="M38.8441 37.0984C38.8441 36.3445 38.4473 35.6521 37.7975 35.2773L20.4672 25.2928C20.1746 25.1208 19.8469 25.0306 19.5147 25.0183H19.3355C19.0032 25.0306 18.6755 25.1208 18.378 25.2928L1.04851 35.2773C0.402856 35.6542 0.000244141 36.3466 0.000244141 37.1004L0.0382959 63.9932C0.0382959 64.3661 0.230601 64.7143 0.557928 64.8987C0.877071 65.0953 1.27805 65.0953 1.59719 64.8987L11.8998 58.9908C12.5504 58.6032 12.9473 57.9182 12.9473 57.1717V44.6082C12.9473 43.8585 13.3441 43.1661 13.9927 42.7932L18.3788 40.2637C18.7045 40.0753 19.0621 39.9819 19.4263 39.9819C19.7847 39.9819 20.1505 40.0744 20.4672 40.2633L24.8513 42.792C25.5002 43.1648 25.8988 43.8572 25.8988 44.607V57.1696C25.8988 57.9153 26.301 58.6036 26.9483 58.9887L37.2443 64.8925C37.5676 65.0851 37.9698 65.0851 38.2918 64.8925C38.6093 64.7082 38.8106 64.3599 38.8106 63.9871L38.8441 37.0984ZM120.622 51.1003C120.622 51.2876 120.522 51.4609 120.36 51.5535L114.408 54.9892C114.246 55.0822 114.046 55.0822 113.885 54.9892L107.932 51.5535C107.768 51.4605 107.67 51.2872 107.67 51.1003V44.219C107.67 44.0313 107.768 43.8585 107.928 43.7642L113.877 40.3227C114.041 40.2285 114.241 40.2285 114.405 40.3227L120.358 43.7642C120.522 43.8585 120.62 44.0313 120.62 44.219L120.622 51.1003ZM122.23 0.132655C121.905 -0.0484334 121.51 -0.043517 121.189 0.143717C120.87 0.332179 120.673 0.676328 120.673 1.04916V27.6798C120.673 27.942 120.534 28.1837 120.307 28.3148C120.082 28.4459 119.802 28.4459 119.574 28.3148L115.233 25.8111C114.587 25.4366 113.791 25.4366 113.142 25.8111L95.8056 35.8295C95.1579 36.2024 94.7581 36.8948 94.7581 37.6404V57.683C94.7581 58.4328 95.1579 59.1211 95.8056 59.498L113.142 69.5234C113.789 69.8962 114.586 69.8962 115.235 69.5234L132.571 59.4939C133.218 59.117 133.619 58.4287 133.619 57.6789V7.72811C133.619 6.9677 133.206 6.26834 132.543 5.89674L122.23 0.132655ZM179.959 44.0379C180.603 43.6634 181 42.9719 181 42.2262V37.3688C181 36.6215 180.603 35.932 179.958 35.5559L162.732 25.5427C162.082 25.1658 161.284 25.1658 160.633 25.5427L143.301 35.5599C142.651 35.9369 142.254 36.6252 142.254 37.3749V57.4093C142.254 58.1632 142.659 58.8597 143.309 59.2325L160.531 69.0612C161.165 69.4259 161.942 69.43 162.585 69.0735L173.002 63.2763C173.329 63.0919 173.538 62.7436 173.538 62.3667C173.538 61.9898 173.337 61.6374 173.01 61.4531L155.572 51.4318C155.244 51.2474 155.044 50.8992 155.044 50.5263V44.2415C155.044 43.8662 155.24 43.5204 155.568 43.3336L160.993 40.1994C161.316 40.0109 161.713 40.0109 162.037 40.1994L167.466 43.3336C167.789 43.518 167.99 43.8662 167.99 44.2391V49.1801C167.99 49.5529 168.19 49.9011 168.514 50.0896C168.837 50.274 169.238 50.274 169.561 50.0855L179.959 44.0379Z" fill="#333333"/>
<path fill-rule="evenodd" clip-rule="evenodd" d="M161.429 43.1005C161.552 43.028 161.705 43.028 161.83 43.1005L165.156 45.022C165.281 45.0941 165.357 45.2269 165.357 45.3703V49.2174C165.357 49.3608 165.281 49.4935 165.156 49.5656L161.83 51.4871C161.705 51.5596 161.552 51.5596 161.429 51.4871L158.104 49.5656C157.978 49.4935 157.9 49.3608 157.9 49.2174V45.3703C157.9 45.2269 157.974 45.0941 158.1 45.022L161.429 43.1005Z" fill="#689F63"/>
<mask id="mask0_56_129" style="mask-type:luminance" maskUnits="userSpaceOnUse" x="47" y="25" width="40" height="45">
<path d="M65.7618 25.6429L48.5239 35.6056C47.8782 35.9784 47.4822 36.6667 47.4822 37.4107V57.3501C47.4822 58.0945 47.8782 58.7824 48.5239 59.1552L65.763 69.1257C66.4074 69.4973 67.202 69.4973 67.8456 69.1257L85.0818 59.1552C85.7242 58.7824 86.1211 58.0941 86.1211 57.3501V37.4107C86.1211 36.6667 85.7242 35.9784 85.0777 35.6056L67.844 25.6429C67.5207 25.4573 67.1607 25.3643 66.8006 25.3643C66.4405 25.3643 66.0805 25.4573 65.7573 25.6429" fill="white"/>
</mask>
<g mask="url(#mask0_56_129)">
<path d="M103.541 33.914L54.9673 10.0735L30.0618 60.9478L78.6338 84.7895L103.541 33.914Z" fill="url(#paint0_linear_56_129)"/>
</g>
<mask id="mask1_56_129" style="mask-type:luminance" maskUnits="userSpaceOnUse" x="47" y="25" width="39" height="45">
<path d="M47.9094 58.6159C48.0743 58.8302 48.2805 59.0157 48.5232 59.155L63.3102 67.7076L65.7733 69.1251C66.1415 69.3382 66.5613 69.4283 66.9738 69.3976C67.1112 69.3865 67.2487 69.3607 67.3829 69.3226L85.5635 35.9893C85.4244 35.8377 85.2615 35.7107 85.079 35.6042L73.792 29.0776L67.8256 25.6402C67.6562 25.5419 67.4725 25.4723 67.2855 25.4231L47.9094 58.6159Z" fill="white"/>
</mask>
<g mask="url(#mask1_56_129)">
<path d="M26.9082 40.9652L61.2059 87.4471L106.565 53.89L72.2655 7.40942L26.9082 40.9652Z" fill="url(#paint1_linear_56_129)"/>
</g>
<mask id="mask2_56_129" style="mask-type:luminance" maskUnits="userSpaceOnUse" x="48" y="25" width="39" height="45">
<path d="M66.5949 25.3757C66.3056 25.4044 66.0229 25.4945 65.7623 25.6428L48.5735 35.5769L67.1084 69.3813C67.3661 69.3444 67.6198 69.2584 67.849 69.1257L85.0868 59.1552C85.6187 58.8463 85.9829 58.3235 86.0934 57.731L67.1984 25.4097C67.0593 25.3823 66.9202 25.3679 66.777 25.3679C66.7197 25.3679 66.6624 25.3708 66.6051 25.3761" fill="white"/>
</mask>
<g mask="url(#mask2_56_129)">
<path d="M48.573 25.3679V69.3821H86.0859V25.3679H48.573Z" fill="url(#paint2_linear_56_129)"/>
</g>
</g>
<defs>
<linearGradient id="paint0_linear_56_129" x1="79.2393" y1="21.9563" x2="54.2823" y2="72.801" gradientUnits="userSpaceOnUse">
<stop offset="0.3" stop-color="#3E863D"/>
<stop offset="0.5" stop-color="#55934F"/>
<stop offset="0.8" stop-color="#5AAD45"/>
</linearGradient>
<linearGradient id="paint1_linear_56_129" x1="44.2626" y1="64.4726" x2="89.6662" y2="30.9692" gradientUnits="userSpaceOnUse">
<stop offset="0.57" stop-color="#3E863D"/>
<stop offset="0.72" stop-color="#619857"/>
<stop offset="1" stop-color="#76AC64"/>
</linearGradient>
<linearGradient id="paint2_linear_56_129" x1="48.5857" y1="47.3763" x2="86.093" y2="47.3763" gradientUnits="userSpaceOnUse">
<stop offset="0.16" stop-color="#6BBF47"/>
<stop offset="0.38" stop-color="#79B461"/>
<stop offset="0.47" stop-color="#75AC64"/>
<stop offset="0.7" stop-color="#659E5A"/>
<stop offset="0.9" stop-color="#3E863D"/>
</linearGradient>
<clipPath id="clip0_56_129">
<rect width="181" height="111" fill="white"/>
</clipPath>
</defs>
</svg>
