<svg width="137" height="121" viewBox="0 0 137 121" fill="none" xmlns="http://www.w3.org/2000/svg">
<g clip-path="url(#clip0_56_158)">
<path d="M68.4999 72.6216C75.2438 72.6216 80.7108 67.1946 80.7108 60.5C80.7108 53.8054 75.2438 48.3784 68.4999 48.3784C61.7561 48.3784 56.2891 53.8054 56.2891 60.5C56.2891 67.1946 61.7561 72.6216 68.4999 72.6216Z" fill="#61DAFB"/>
<path d="M68.5 85.3345C104.687 85.3345 134.022 74.2157 134.022 60.5C134.022 46.7843 104.687 35.6655 68.5 35.6655C32.3134 35.6655 2.97827 46.7843 2.97827 60.5C2.97827 74.2157 32.3134 85.3345 68.5 85.3345Z" stroke="#61DAFB" stroke-width="6"/>
<path d="M46.8343 72.9173C64.9276 104.027 89.2952 123.687 101.261 116.829C113.226 109.971 108.259 79.1922 90.1657 48.0828C72.0723 16.9733 47.7047 -2.68646 35.7391 4.17139C23.7735 11.0292 28.7409 41.8078 46.8343 72.9173Z" stroke="#61DAFB" stroke-width="6"/>
<path d="M46.8343 48.0828C28.7409 79.1922 23.7734 109.971 35.7391 116.829C47.7047 123.686 72.0723 104.027 90.1656 72.9173C108.259 41.8078 113.226 11.0292 101.261 4.17138C89.2952 -2.68647 64.9276 16.9733 46.8343 48.0828Z" stroke="#61DAFB" stroke-width="6"/>
</g>
<defs>
<clipPath id="clip0_56_158">
<rect width="137" height="121" fill="white"/>
</clipPath>
</defs>
</svg>
