<svg width="183" height="183" viewBox="0 0 183 183" fill="none" xmlns="http://www.w3.org/2000/svg">
<path d="M89.5786 41.4494C60.0241 42.3887 51.2401 63.5009 49.2271 74.9384C51.85 70.6988 60.1156 61.3965 72.2851 61.3965C86.4676 61.3965 97.2646 77.226 103.853 82.167C111.856 88.17 127.94 96.0961 149.054 89.67C165.89 84.546 173.698 66.6728 175.406 58.1939C167.262 69.2654 154.91 75.9154 139.629 68.0759C129.107 62.6774 121.238 40.443 89.5786 41.4494Z" fill="#07B6D5"/>
<path d="M47.7631 91.6828C18.2086 92.6221 9.42462 113.734 7.41162 125.172C10.0346 120.932 18.3001 111.63 30.4696 111.63C44.6521 111.63 55.4491 127.459 62.0371 132.4C70.041 138.403 86.1241 146.329 107.238 139.903C124.074 134.779 131.882 116.906 133.59 108.427C125.447 119.499 113.094 126.149 97.8136 118.309C87.2911 112.911 79.4221 90.6764 47.7631 91.6828Z" fill="#07B6D5"/>
</svg>
