<svg width="261" height="261" viewBox="0 0 261 261" fill="none" xmlns="http://www.w3.org/2000/svg">
<g filter="url(#filter0_d_140_60)">
<rect x="40.8956" y="36.5146" width="180" height="180" rx="32" fill="#1D1F23"/>
<rect x="41.3956" y="37.0146" width="179" height="179" rx="31.5" stroke="black"/>
</g>
<path d="M142.306 112.228L132.305 121.54L123.022 102.807L127.818 92.0364C129.03 89.8878 131.012 89.8595 132.224 92.0364L142.306 112.228Z" fill="#FFA000"/>
<path d="M132.309 121.536L94.9006 156.33L123.026 102.807L132.309 121.536Z" fill="#F57F17"/>
<path d="M153.272 97.9875C155.064 96.2808 156.908 96.8565 157.374 99.2807L167.099 155.86L134.843 175.225C133.712 175.858 130.712 176.105 130.712 176.105C130.712 176.105 127.984 175.773 126.938 175.197L94.9006 156.33L153.272 97.9875Z" fill="#FFCA28"/>
<path d="M123.026 102.807L94.9006 156.33L107.435 78.0994C107.905 75.6752 109.28 75.4279 110.52 77.5764L123.026 102.807Z" fill="#FFA000"/>
<defs>
<filter id="filter0_d_140_60" x="0.89563" y="0.514648" width="260" height="260" filterUnits="userSpaceOnUse" color-interpolation-filters="sRGB">
<feFlood flood-opacity="0" result="BackgroundImageFix"/>
<feColorMatrix in="SourceAlpha" type="matrix" values="0 0 0 0 0 0 0 0 0 0 0 0 0 0 0 0 0 0 127 0" result="hardAlpha"/>
<feOffset dy="4"/>
<feGaussianBlur stdDeviation="20"/>
<feComposite in2="hardAlpha" operator="out"/>
<feColorMatrix type="matrix" values="0 0 0 0 0.0367917 0 0 0 0 0.0348958 0 0 0 0 0.0484375 0 0 0 0.1 0"/>
<feBlend mode="normal" in2="BackgroundImageFix" result="effect1_dropShadow_140_60"/>
<feBlend mode="normal" in="SourceGraphic" in2="effect1_dropShadow_140_60" result="shape"/>
</filter>
</defs>
</svg>
