<svg width="261" height="261" viewBox="0 0 261 261" fill="none" xmlns="http://www.w3.org/2000/svg">
<g filter="url(#filter0_d_140_59)">
<rect x="40.724" y="36.4058" width="180" height="180" rx="32" fill="#1D1F23"/>
<rect x="41.224" y="36.9058" width="179" height="179" rx="31.5" stroke="black"/>
</g>
<path d="M179.762 90.801L133.645 174.695C132.693 176.427 130.246 176.437 129.28 174.713L82.249 90.8088C81.1959 88.9307 82.7748 86.6554 84.8671 87.0362L131.033 95.4307C131.328 95.4842 131.629 95.4837 131.924 95.4291L177.124 87.0479C179.21 86.6612 180.796 88.9189 179.762 90.801V90.801Z" fill="url(#paint0_linear_140_59)"/>
<path d="M153.024 76.0246L118.897 82.8278C118.624 82.8821 118.377 83.0271 118.194 83.24C118.011 83.4528 117.903 83.7215 117.887 84.0037L115.788 120.074C115.776 120.272 115.81 120.47 115.887 120.652C115.964 120.834 116.081 120.995 116.23 121.123C116.379 121.251 116.555 121.342 116.744 121.389C116.933 121.435 117.131 121.436 117.321 121.392L126.822 119.161C127.711 118.952 128.515 119.749 128.332 120.658L125.509 134.722C125.319 135.668 126.192 136.477 127.101 136.196L132.97 134.383C133.879 134.102 134.754 134.913 134.561 135.86L130.075 157.95C129.794 159.332 131.601 160.085 132.354 158.901L132.858 158.11L160.667 101.649C161.133 100.704 160.329 99.6262 159.309 99.8268L149.528 101.747C148.609 101.927 147.827 101.056 148.087 100.142L154.47 77.6292C154.73 76.7124 153.945 75.8413 153.025 76.0246H153.024Z" fill="url(#paint1_linear_140_59)"/>
<defs>
<filter id="filter0_d_140_59" x="0.723999" y="0.405762" width="260" height="260" filterUnits="userSpaceOnUse" color-interpolation-filters="sRGB">
<feFlood flood-opacity="0" result="BackgroundImageFix"/>
<feColorMatrix in="SourceAlpha" type="matrix" values="0 0 0 0 0 0 0 0 0 0 0 0 0 0 0 0 0 0 127 0" result="hardAlpha"/>
<feOffset dy="4"/>
<feGaussianBlur stdDeviation="20"/>
<feComposite in2="hardAlpha" operator="out"/>
<feColorMatrix type="matrix" values="0 0 0 0 0.0367917 0 0 0 0 0.0348958 0 0 0 0 0.0484375 0 0 0 0.1 0"/>
<feBlend mode="normal" in2="BackgroundImageFix" result="effect1_dropShadow_140_59"/>
<feBlend mode="normal" in="SourceGraphic" in2="effect1_dropShadow_140_59" result="shape"/>
</filter>
<linearGradient id="paint0_linear_140_59" x1="81.1007" y1="93.8048" x2="131.951" y2="161.688" gradientUnits="userSpaceOnUse">
<stop stop-color="#41D1FF"/>
<stop offset="1" stop-color="#BD34FE"/>
</linearGradient>
<linearGradient id="paint1_linear_140_59" x1="135.312" y1="77.8718" x2="145.894" y2="149.224" gradientUnits="userSpaceOnUse">
<stop stop-color="#FFEA83"/>
<stop offset="0.083" stop-color="#FFDD35"/>
<stop offset="1" stop-color="#FFA800"/>
</linearGradient>
</defs>
</svg>
